<svg data-v-fde0c5aa="" xmlns="http://www.w3.org/2000/svg" viewBox="0 0 300 300" class="iconAbove"><!----><defs data-v-fde0c5aa=""><!----></defs><rect data-v-fde0c5aa="" fill="#5E6FD3" x="0" y="0" width="300px" height="300px" class="logo-background-square"></rect><defs data-v-fde0c5aa=""><!----></defs><g data-v-fde0c5aa="" id="8fe98a96-ccc0-41d6-b895-f4ffb6140895" fill="#ffffff" transform="matrix(3.7222620712916417,0,0,3.7222620712916417,19.739441626167253,168.38009946120198)"><path d="M4.89 5.68L7.60 5.68L7.60 3.78L0.07 3.78L0.07 5.68L2.79 5.68L2.79 13.30L4.89 13.30ZM14.83 9.80C14.83 8.12 14.15 6.99 12.50 6.99C11.69 6.99 11.03 7.35 10.61 7.88L10.61 2.80L8.51 2.80L8.51 13.30L10.61 13.30L10.61 10.22C10.61 9.38 11.13 8.68 11.79 8.68C12.45 8.68 12.73 9.07 12.73 9.80L12.73 13.30L14.83 13.30ZM18.20 9.48C18.20 9.48 18.27 8.33 19.59 8.33C20.86 8.33 20.96 9.48 20.96 9.48ZM22.97 10.08C22.97 8.11 21.42 6.99 19.54 6.99C17.47 6.99 15.95 8.29 15.95 10.22C15.95 12.18 17.42 13.44 19.54 13.44C21.18 13.44 22.50 12.63 22.86 11.00L20.72 11.00C20.71 11.45 20.24 11.94 19.50 11.94C18.68 11.94 18.17 11.19 18.17 10.47L22.96 10.47C22.96 10.35 22.97 10.21 22.97 10.08ZM39.68 13.30L37.83 3.78L35.34 3.78L33.36 10.46L31.37 3.78L28.88 3.78L27.03 13.30L29.34 13.30L30.46 6.73L32.33 13.30L34.38 13.30L36.25 6.73L37.37 13.30ZM45.42 10.22C45.42 11.03 44.79 11.76 43.95 11.76C43.11 11.76 42.48 11.03 42.48 10.22C42.48 9.41 43.11 8.68 43.95 8.68C44.79 8.68 45.42 9.41 45.42 10.22ZM47.52 7.14L45.42 7.14L45.42 7.88C44.87 7.21 44.09 6.99 43.30 6.99C41.55 6.99 40.24 8.51 40.24 10.22C40.24 11.93 41.55 13.44 43.30 13.44C44.09 13.44 45.00 13.19 45.42 12.56L45.42 13.30L47.52 13.30ZM51.84 8.75L52.96 8.75L52.96 7.13L51.84 7.13L51.84 4.77L49.76 4.77L49.76 7.13L48.64 7.13L48.64 8.75L49.76 8.75L49.76 13.30L51.84 13.30ZM57.57 8.68C57.89 8.68 58.20 8.78 58.41 9.03L58.44 9.03L58.44 7.13C58.27 7.04 57.99 6.99 57.81 6.99C57.04 6.99 56.50 7.42 56.18 7.88L56.18 7.13L54.08 7.13L54.08 13.30L56.18 13.30L56.18 10.22C56.18 9.48 56.78 8.68 57.57 8.68ZM59.30 5.01C59.30 5.68 59.85 6.24 60.54 6.24C61.21 6.24 61.77 5.68 61.77 5.01C61.77 4.33 61.21 3.78 60.54 3.78C59.85 3.78 59.30 4.33 59.30 5.01ZM61.59 13.30L61.59 7.13L59.49 7.13L59.49 13.30ZM62.41 7.14L64.72 10.19L62.22 13.30L64.78 13.30L66.07 11.40L67.35 13.30L69.92 13.30L67.41 10.19L69.72 7.14L67.28 7.14L66.07 9.03L64.85 7.14Z"></path></g><defs data-v-fde0c5aa=""><!----></defs><g data-v-fde0c5aa="" id="2889ac30-9f9d-4c5f-9e21-a9f789ab1953" stroke="none" fill="#25347B" transform="matrix(2.65822308346068,0,0,2.65822308346068,107.46843066462912,75.74195180923321)"><circle cx="25.044" cy="25.043" r="6.956"></circle><circle cx="6.956" cy="25.043" r="6.956"></circle><path d="M.172 2.201H13.74v13.568H.172zM18.432 2.201H32v13.568H18.432z"></path></g></svg>